<?xml version="1.0" encoding="utf-8"?>
<!-- Generator: Adobe Illustrator 19.0.0, SVG Export Plug-In . SVG Version: 6.00 Build 0)  -->
<svg version="1.1" id="Слой_1" xmlns="http://www.w3.org/2000/svg" xmlns:xlink="http://www.w3.org/1999/xlink" x="0px" y="0px"
	 width="184.4px" height="132.7px" viewBox="0 0 184.4 132.7" style="enable-background:new 0 0 184.4 132.7;" xml:space="preserve"
	>
<style type="text/css">
	.st0{fill:#E51C24;}
	.st1{fill:#FFFFFF;}
</style>
<g id="XMLID_2_">
	<g id="XMLID_67_">
		<rect id="XMLID_68_" y="3.8" class="st0" width="50.6" height="16.9"/>
	</g>
	<g id="XMLID_65_">
		<rect id="XMLID_66_" x="16.9" y="43" class="st0" width="16.9" height="16.9"/>
	</g>
	<g id="XMLID_63_">
		
			<rect id="XMLID_64_" x="17.4" y="24" transform="matrix(0.7071 -0.7071 0.7071 0.7071 -15.1005 27.2063)" class="st0" width="15.8" height="15.8"/>
	</g>
	<path id="XMLID_61_" class="st0" d="M75.1,16.2v-5.9l-0.1,0l-0.9,2.2l-0.7,1.6h-1.9l-0.7-1.7l-0.8-2.2l-0.1,0v5.9h-2.6V3.8h2.4
		l1.5,3.5l1.2,3.1h0.1l1.2-3.1l1.4-3.5h2.4v12.5H75.1z"/>
	<path id="XMLID_58_" class="st0" d="M88.1,12.3c0,0.6-0.1,1.2-0.3,1.7c-0.2,0.5-0.5,0.9-0.8,1.3c-0.4,0.4-0.8,0.6-1.3,0.8
		c-0.5,0.2-1,0.3-1.6,0.3c-0.7,0-1.3-0.1-1.8-0.3c-0.5-0.2-0.9-0.5-1.2-0.9c-0.3-0.4-0.6-0.8-0.7-1.4c-0.1-0.5-0.2-1.1-0.2-1.6V7.7
		c0-0.5,0.1-0.9,0.2-1.4C80.5,5.8,80.7,5.4,81,5c0.3-0.4,0.7-0.7,1.2-0.9c0.5-0.2,1.1-0.4,1.9-0.4c0.7,0,1.3,0.1,1.8,0.3
		c0.5,0.2,0.9,0.5,1.2,0.9c0.3,0.4,0.6,0.8,0.7,1.3c0.2,0.5,0.2,1,0.2,1.5V12.3z M85.5,7.6c0-0.1,0-0.3-0.1-0.4
		c0-0.2-0.1-0.3-0.2-0.4c-0.1-0.1-0.2-0.3-0.4-0.4c-0.2-0.1-0.4-0.2-0.7-0.2c-0.3,0-0.5,0-0.7,0.1S83.1,6.5,83,6.7
		c-0.1,0.1-0.2,0.3-0.3,0.4c-0.1,0.2-0.1,0.3-0.1,0.5v4.6c0,0.5,0.1,0.9,0.3,1.2c0.2,0.3,0.6,0.5,1.1,0.5c0.4,0,0.7-0.1,1-0.4
		c0.3-0.2,0.4-0.6,0.4-1V7.6z"/>
	<path id="XMLID_56_" class="st0" d="M98.8,3.8v12.5h-2.6V6.2h-2.1V10c0,0.9,0,1.7-0.1,2.5c-0.1,0.7-0.3,1.4-0.5,1.9
		c-0.3,0.5-0.6,1-1.1,1.4c-0.5,0.4-1.1,0.6-1.9,0.7l-0.6-2c0.5-0.2,0.8-0.4,1.1-0.6c0.3-0.2,0.5-0.5,0.6-0.9
		c0.1-0.3,0.2-0.8,0.2-1.2c0-0.5,0-1,0-1.6V3.8H98.8z"/>
	<path id="XMLID_53_" class="st0" d="M109.5,12.3c0,0.6-0.1,1.2-0.3,1.7c-0.2,0.5-0.5,0.9-0.8,1.3s-0.8,0.6-1.3,0.8
		c-0.5,0.2-1,0.3-1.6,0.3c-0.7,0-1.3-0.1-1.8-0.3c-0.5-0.2-0.9-0.5-1.2-0.9c-0.3-0.4-0.6-0.8-0.7-1.4c-0.1-0.5-0.2-1.1-0.2-1.6V7.7
		c0-0.5,0.1-0.9,0.2-1.4c0.1-0.5,0.4-0.9,0.7-1.3c0.3-0.4,0.7-0.7,1.2-0.9c0.5-0.2,1.1-0.4,1.9-0.4c0.7,0,1.3,0.1,1.8,0.3
		c0.5,0.2,0.9,0.5,1.2,0.9s0.6,0.8,0.7,1.3c0.2,0.5,0.2,1,0.2,1.5V12.3z M106.9,7.6c0-0.1,0-0.3-0.1-0.4c0-0.2-0.1-0.3-0.2-0.4
		c-0.1-0.1-0.2-0.3-0.4-0.4c-0.2-0.1-0.4-0.2-0.7-0.2s-0.5,0-0.7,0.1c-0.2,0.1-0.3,0.2-0.4,0.3c-0.1,0.1-0.2,0.3-0.3,0.4
		c-0.1,0.2-0.1,0.3-0.1,0.5v4.6c0,0.5,0.1,0.9,0.3,1.2c0.2,0.3,0.6,0.5,1.1,0.5c0.4,0,0.7-0.1,1-0.4c0.3-0.2,0.4-0.6,0.4-1V7.6z"/>
	<path id="XMLID_50_" class="st0" d="M113.5,16.2v2.6h-2.2V14l1.1-0.2c0.3-0.3,0.4-0.6,0.6-0.9c0.1-0.3,0.2-0.7,0.3-1.1
		s0.1-0.9,0.1-1.4c0-0.5,0.1-1.1,0.1-1.7l0.2-5h7.1v10.1h1.1v5h-2.2v-2.6H113.5z M115.8,9.4c0,0.4,0,0.8-0.1,1.2
		c0,0.4-0.1,0.8-0.1,1.2s-0.1,0.8-0.2,1.1s-0.2,0.6-0.3,0.9h3.2V6.2H116L115.8,9.4z"/>
	<path id="XMLID_46_" class="st0" d="M124.3,16.2V3.8h7.3v2.4h-4.7v2.6h4v2.4h-4v2.7h4.7v2.5H124.3z M124.9,2.8V0.5h2.4v2.3H124.9z
		 M128.4,2.8V0.5h2.4v2.3H128.4z"/>
	<path id="XMLID_44_" class="st0" d="M136.4,9.8c-0.3-0.2-0.7-0.4-1-0.8c-0.3-0.4-0.5-0.9-0.6-1.4l-0.9-3.7h2.5l0.8,3.3
		c0.2,0.7,0.4,1.1,0.7,1.4c0.3,0.2,0.7,0.4,1,0.4h0.7V3.7h2.6v5.1h0.6c0.2,0,0.3,0,0.5-0.1c0.2-0.1,0.3-0.1,0.5-0.3
		c0.1-0.1,0.3-0.3,0.4-0.5c0.1-0.2,0.2-0.5,0.3-0.8l0.8-3.3h2.5L147,7.5c-0.1,0.6-0.3,1.1-0.6,1.4c-0.3,0.4-0.6,0.6-1,0.8l0,0.1
		c0.5,0.2,0.8,0.4,1.1,0.8c0.3,0.4,0.5,0.9,0.6,1.5l1,4.1h-2.6l-0.8-3.4c-0.2-0.7-0.4-1.1-0.7-1.4c-0.3-0.3-0.6-0.4-1.1-0.4h-0.7
		v5.2h-2.6v-5.2h-0.7c-0.5,0-0.8,0.1-1.1,0.4c-0.3,0.3-0.5,0.7-0.7,1.4l-0.8,3.4h-2.6l1-4.1c0.1-0.6,0.3-1.1,0.6-1.5
		C135.6,10.3,136,10,136.4,9.8L136.4,9.8z"/>
	<path id="XMLID_42_" class="st0" d="M156,16.2v-5.1h-2.8v5.1h-2.6V3.8h2.6v5h2.8v-5h2.6v12.5H156z"/>
	<path id="XMLID_38_" class="st0" d="M161.4,16.2V3.8h2.6v4.7h1.6c0.7,0,1.2,0.1,1.7,0.3c0.5,0.2,0.9,0.5,1.2,0.8
		c0.3,0.3,0.5,0.7,0.7,1.2c0.2,0.5,0.2,1,0.2,1.5c0,0.7-0.1,1.3-0.3,1.7s-0.4,0.9-0.8,1.2c-0.3,0.3-0.8,0.6-1.2,0.7
		c-0.5,0.2-1,0.3-1.6,0.3H161.4z M165.5,13.8c0.5,0,0.8-0.1,1.1-0.4c0.2-0.3,0.3-0.6,0.3-1.1c0-0.5-0.1-0.9-0.4-1.1
		c-0.3-0.2-0.6-0.3-1.1-0.3H164v3H165.5z M170.5,16.2V3.8h2.6v12.5H170.5z"/>
	<path id="XMLID_35_" class="st0" d="M181.8,16.2V9.4h0l-3.5,6.8h-2.4V3.8h2.6V11h0l3.6-7.2h2.3v12.5H181.8z M180.3,3
		c-0.5,0-1-0.1-1.4-0.3c-0.4-0.2-0.7-0.5-0.9-0.8c-0.2-0.3-0.4-0.6-0.5-1c-0.1-0.4-0.2-0.7-0.2-1h1.8c0,0.1,0,0.3,0.1,0.4
		c0.1,0.1,0.1,0.3,0.2,0.4c0.1,0.1,0.2,0.2,0.3,0.3c0.1,0.1,0.3,0.1,0.4,0.1c0.2,0,0.3,0,0.5-0.1c0.1-0.1,0.2-0.2,0.3-0.3
		c0.1-0.1,0.2-0.3,0.2-0.4c0-0.1,0.1-0.3,0.1-0.4h1.9c0,0.3-0.1,0.6-0.2,1c-0.1,0.4-0.3,0.7-0.5,1c-0.2,0.3-0.5,0.6-0.9,0.8
		C181.3,2.9,180.8,3,180.3,3z"/>
	<path id="XMLID_33_" class="st0" d="M72.7,27.9V38h-2.6V27.9h-2.7v-2.4h7.9v2.4H72.7z"/>
	<path id="XMLID_31_" class="st0" d="M77.4,38V25.5h7.3v2.4H80v2.6h4v2.4h-4v2.7h4.7V38H77.4z"/>
	<path id="XMLID_28_" class="st0" d="M92.5,35.4h-3c-0.1,0.4-0.2,0.8-0.3,1.3c-0.1,0.4-0.2,0.9-0.3,1.3h-2.7l3.6-12.5h2.6L96,38
		h-2.8L92.5,35.4z M90.5,31.3l-0.4,1.8H92l-0.3-1.8l-0.5-2.5H91L90.5,31.3z"/>
	<path id="XMLID_26_" class="st0" d="M101.1,27.9V38h-2.6V27.9h-2.7v-2.4h7.9v2.4H101.1z"/>
	<path id="XMLID_23_" class="st0" d="M113.7,29.5c0,0.6-0.1,1.1-0.3,1.6c-0.2,0.5-0.4,0.9-0.8,1.3c-0.3,0.3-0.7,0.6-1.2,0.8
		c-0.5,0.2-1,0.3-1.6,0.3h-1.5V38h-2.6V25.5h4c0.6,0,1.1,0.1,1.6,0.2c0.5,0.2,0.9,0.4,1.3,0.7c0.4,0.3,0.6,0.7,0.8,1.2
		C113.6,28.2,113.7,28.8,113.7,29.5z M111.2,29.4c0-0.5-0.1-0.9-0.4-1.2c-0.3-0.2-0.6-0.3-1.1-0.3h-1.4V31h1.4c0.4,0,0.7-0.1,1-0.4
		C111,30.4,111.2,30,111.2,29.4z"/>
	<path id="XMLID_21_" class="st0" d="M68.6,47.3v3.4c0,1,0.2,1.8,0.5,2.3s1,0.7,1.9,0.7c0.3,0,0.6-0.1,1-0.2
		c0.4-0.1,0.9-0.3,1.3-0.5v-5.7h1.2v12.5h-1.2l0-5.8c-0.4,0.2-0.8,0.4-1.3,0.5c-0.4,0.1-0.9,0.2-1.3,0.2c-0.5,0-1-0.1-1.4-0.2
		c-0.4-0.1-0.7-0.4-1-0.7c-0.3-0.3-0.5-0.7-0.6-1.2c-0.1-0.5-0.2-1.1-0.2-1.8v-3.5H68.6z"/>
	<path id="XMLID_19_" class="st0" d="M77.5,59.7V47.3h6.5v1.1h-5.3v4.5h4.6v1h-4.6v4.7h5.3v1.1H77.5z"/>
	<path id="XMLID_17_" class="st0" d="M92.3,48.3h-4.1v5.6c0,1.1-0.1,1.9-0.2,2.6c-0.1,0.7-0.3,1.3-0.5,1.7c-0.2,0.5-0.5,0.8-0.9,1.1
		c-0.3,0.3-0.8,0.5-1.2,0.7c-0.1-0.1-0.1-0.3-0.2-0.4s-0.1-0.3-0.2-0.4c0.3-0.2,0.6-0.4,0.9-0.6c0.3-0.2,0.5-0.5,0.6-0.8
		c0.2-0.4,0.3-0.8,0.4-1.4c0.1-0.6,0.1-1.3,0.1-2.2v-6.9h6.3v12.5h-1.1V48.3z"/>
	<path id="XMLID_14_" class="st0" d="M102.2,54h-2c-0.2,0-0.4,0-0.7,0.1c-0.2,0.1-0.4,0.2-0.6,0.3c-0.2,0.1-0.4,0.4-0.5,0.6
		c-0.2,0.3-0.3,0.6-0.4,1L97,59.7h-1.2l0.9-3.8c0.1-0.5,0.3-1,0.5-1.4c0.2-0.4,0.5-0.7,1-0.8c-0.4-0.1-0.7-0.3-0.9-0.4
		c-0.2-0.2-0.4-0.4-0.6-0.7c-0.1-0.3-0.2-0.5-0.3-0.9c-0.1-0.3-0.1-0.6-0.1-0.9c0-1.1,0.3-1.9,0.9-2.6c0.6-0.6,1.4-1,2.5-1h3.6v12.5
		h-1.1V54z M97.5,50.8c0,0.8,0.2,1.4,0.7,1.7c0.4,0.3,1,0.5,1.8,0.5h2.3v-4.7h-2.3c-0.8,0-1.4,0.2-1.8,0.7
		C97.7,49.4,97.5,50,97.5,50.8z"/>
	<path id="XMLID_11_" class="st0" d="M106.2,59.7V47.3h6.2v1.1h-5.1v4.3h2.4c0.6,0,1.2,0.1,1.6,0.3c0.4,0.2,0.8,0.4,1.1,0.7
		c0.3,0.3,0.5,0.7,0.6,1.1c0.1,0.4,0.2,0.9,0.2,1.4c0,1.2-0.3,2.1-0.9,2.7c-0.6,0.6-1.5,0.9-2.7,0.9H106.2z M112.1,56.1
		c0-0.3,0-0.6-0.1-0.9c-0.1-0.3-0.2-0.5-0.4-0.8c-0.2-0.2-0.4-0.4-0.8-0.5c-0.3-0.1-0.7-0.2-1.1-0.2h-2.3v4.9h2.3
		c0.8,0,1.5-0.2,1.8-0.7C111.9,57.5,112.1,56.9,112.1,56.1z"/>
	<path id="XMLID_9_" class="st0" d="M115.7,59.7V47.3h1.1v10.3l0.1,0l5.3-10.3h1.1v12.5h-1.1V49.4h-0.1l-5.3,10.3H115.7z"/>
	<path id="XMLID_7_" class="st0" d="M132.2,59.7v-5.8h-4.8v5.8h-1.1V47.3h1.1v5.6h4.8v-5.6h1.2v12.5H132.2z"/>
	<path id="XMLID_5_" class="st0" d="M143.1,57.4c-0.2,0.8-0.6,1.4-1.2,1.8c-0.6,0.4-1.3,0.6-2.2,0.6c-0.5,0-1-0.1-1.5-0.3
		c-0.4-0.2-0.8-0.4-1.1-0.7c-0.3-0.3-0.5-0.7-0.7-1.1c-0.2-0.4-0.2-0.9-0.2-1.5v-5.4c0-0.5,0.1-1,0.2-1.5c0.2-0.4,0.4-0.8,0.7-1.1
		c0.3-0.3,0.7-0.6,1.1-0.8c0.4-0.2,0.9-0.3,1.5-0.3c0.8,0,1.5,0.2,2.2,0.6c0.6,0.4,1,1,1.2,1.8L142,50c-0.1-0.5-0.4-1-0.8-1.3
		c-0.4-0.3-0.9-0.4-1.5-0.4c-0.4,0-0.7,0.1-1,0.2c-0.3,0.1-0.6,0.3-0.8,0.5c-0.2,0.2-0.4,0.5-0.5,0.8c-0.1,0.3-0.2,0.6-0.2,1v5.5
		c0,0.3,0.1,0.7,0.2,1c0.1,0.3,0.3,0.6,0.5,0.8s0.5,0.4,0.8,0.5c0.3,0.1,0.6,0.2,1,0.2c0.6,0,1.1-0.1,1.5-0.4
		c0.4-0.3,0.7-0.7,0.8-1.3L143.1,57.4z"/>
	<path id="XMLID_3_" class="st0" d="M145.4,59.7V47.3h1.2v5.5h1.7c0.2,0,0.4,0,0.6-0.1c0.2,0,0.4-0.1,0.6-0.3
		c0.2-0.1,0.4-0.3,0.6-0.6c0.2-0.3,0.3-0.6,0.4-1l1-3.7h1.1l-1,3.6c-0.2,0.6-0.4,1.1-0.7,1.5s-0.6,0.7-1,0.8
		c0.5,0.2,0.9,0.4,1.2,0.9c0.3,0.4,0.5,1,0.6,1.6l1.1,4h-1.2l-1-3.9c-0.1-0.4-0.2-0.8-0.4-1c-0.2-0.3-0.3-0.5-0.5-0.6
		c-0.2-0.1-0.4-0.2-0.6-0.3c-0.2,0-0.5-0.1-0.7-0.1h-1.8v5.9H145.4z"/>
</g>
<g id="XMLID_69_">
	<g id="XMLID_134_">
		<rect id="XMLID_135_" y="76.5" class="st1" width="50.6" height="16.9"/>
	</g>
	<g id="XMLID_132_">
		<rect id="XMLID_133_" x="16.9" y="115.6" class="st1" width="16.9" height="16.9"/>
	</g>
	<g id="XMLID_130_">
		
			<rect id="XMLID_131_" x="17.4" y="96.6" transform="matrix(0.7071 -0.7071 0.7071 0.7071 -66.4836 48.4898)" class="st1" width="15.8" height="15.8"/>
	</g>
	<path id="XMLID_128_" class="st1" d="M75.1,88.9V83L75,83l-0.9,2.2l-0.7,1.6h-1.9l-0.7-1.7L70.1,83L70,83v5.9h-2.6V76.4h2.4
		l1.5,3.5l1.2,3.1h0.1l1.2-3.1l1.4-3.5h2.4v12.5H75.1z"/>
	<path id="XMLID_125_" class="st1" d="M88.1,85c0,0.6-0.1,1.2-0.3,1.7c-0.2,0.5-0.5,0.9-0.8,1.3c-0.4,0.4-0.8,0.6-1.3,0.8
		c-0.5,0.2-1,0.3-1.6,0.3c-0.7,0-1.3-0.1-1.8-0.3c-0.5-0.2-0.9-0.5-1.2-0.9c-0.3-0.4-0.6-0.8-0.7-1.4c-0.1-0.5-0.2-1.1-0.2-1.6v-4.4
		c0-0.5,0.1-0.9,0.2-1.4c0.1-0.5,0.4-0.9,0.7-1.3c0.3-0.4,0.7-0.7,1.2-0.9c0.5-0.2,1.1-0.4,1.9-0.4c0.7,0,1.3,0.1,1.8,0.3
		c0.5,0.2,0.9,0.5,1.2,0.9c0.3,0.4,0.6,0.8,0.7,1.3c0.2,0.5,0.2,1,0.2,1.5V85z M85.5,80.2c0-0.1,0-0.3-0.1-0.4
		c0-0.2-0.1-0.3-0.2-0.4c-0.1-0.1-0.2-0.3-0.4-0.4c-0.2-0.1-0.4-0.2-0.7-0.2c-0.3,0-0.5,0-0.7,0.1c-0.2,0.1-0.3,0.2-0.4,0.3
		c-0.1,0.1-0.2,0.3-0.3,0.4c-0.1,0.2-0.1,0.3-0.1,0.5v4.6c0,0.5,0.1,0.9,0.3,1.2c0.2,0.3,0.6,0.5,1.1,0.5c0.4,0,0.7-0.1,1-0.4
		c0.3-0.2,0.4-0.6,0.4-1V80.2z"/>
	<path id="XMLID_123_" class="st1" d="M98.8,76.4v12.5h-2.6V78.9h-2.1v3.9c0,0.9,0,1.7-0.1,2.5c-0.1,0.7-0.3,1.4-0.5,1.9
		c-0.3,0.5-0.6,1-1.1,1.4c-0.5,0.4-1.1,0.6-1.9,0.7l-0.6-2c0.5-0.2,0.8-0.4,1.1-0.6c0.3-0.2,0.5-0.5,0.6-0.9
		c0.1-0.3,0.2-0.8,0.2-1.2c0-0.5,0-1,0-1.6v-6.3H98.8z"/>
	<path id="XMLID_120_" class="st1" d="M109.5,85c0,0.6-0.1,1.2-0.3,1.7c-0.2,0.5-0.5,0.9-0.8,1.3c-0.4,0.4-0.8,0.6-1.3,0.8
		c-0.5,0.2-1,0.3-1.6,0.3c-0.7,0-1.3-0.1-1.8-0.3c-0.5-0.2-0.9-0.5-1.2-0.9c-0.3-0.4-0.6-0.8-0.7-1.4c-0.1-0.5-0.2-1.1-0.2-1.6v-4.4
		c0-0.5,0.1-0.9,0.2-1.4c0.1-0.5,0.4-0.9,0.7-1.3c0.3-0.4,0.7-0.7,1.2-0.9c0.5-0.2,1.1-0.4,1.9-0.4c0.7,0,1.3,0.1,1.8,0.3
		c0.5,0.2,0.9,0.5,1.2,0.9s0.6,0.8,0.7,1.3c0.2,0.5,0.2,1,0.2,1.5V85z M106.9,80.2c0-0.1,0-0.3-0.1-0.4c0-0.2-0.1-0.3-0.2-0.4
		c-0.1-0.1-0.2-0.3-0.4-0.4c-0.2-0.1-0.4-0.2-0.7-0.2s-0.5,0-0.7,0.1c-0.2,0.1-0.3,0.2-0.4,0.3c-0.1,0.1-0.2,0.3-0.3,0.4
		c-0.1,0.2-0.1,0.3-0.1,0.5v4.6c0,0.5,0.1,0.9,0.3,1.2c0.2,0.3,0.6,0.5,1.1,0.5c0.4,0,0.7-0.1,1-0.4c0.3-0.2,0.4-0.6,0.4-1V80.2z"/>
	<path id="XMLID_117_" class="st1" d="M113.5,88.9v2.6h-2.2v-4.8l1.1-0.2c0.3-0.3,0.4-0.6,0.6-0.9c0.1-0.3,0.2-0.7,0.3-1.1
		s0.1-0.9,0.1-1.4c0-0.5,0.1-1.1,0.1-1.7l0.2-5h7.1v10.1h1.1v5h-2.2v-2.6H113.5z M115.8,82c0,0.4,0,0.8-0.1,1.2
		c0,0.4-0.1,0.8-0.1,1.2s-0.1,0.8-0.2,1.1c-0.1,0.4-0.2,0.6-0.3,0.9h3.2v-7.7H116L115.8,82z"/>
	<path id="XMLID_113_" class="st1" d="M124.3,88.9V76.4h7.3v2.4h-4.7v2.6h4v2.4h-4v2.7h4.7v2.5H124.3z M124.9,75.5v-2.3h2.4v2.3
		H124.9z M128.4,75.5v-2.3h2.4v2.3H128.4z"/>
	<path id="XMLID_111_" class="st1" d="M136.4,82.4c-0.3-0.2-0.7-0.4-1-0.8c-0.3-0.4-0.5-0.9-0.6-1.4l-0.9-3.7h2.5l0.8,3.3
		c0.2,0.7,0.4,1.1,0.7,1.4c0.3,0.2,0.7,0.4,1,0.4h0.7v-5.1h2.6v5.1h0.6c0.2,0,0.3,0,0.5-0.1c0.2-0.1,0.3-0.1,0.5-0.3
		c0.1-0.1,0.3-0.3,0.4-0.5c0.1-0.2,0.2-0.5,0.3-0.8l0.8-3.3h2.5l-0.9,3.7c-0.1,0.6-0.3,1.1-0.6,1.4c-0.3,0.4-0.6,0.6-1,0.8l0,0.1
		c0.5,0.2,0.8,0.4,1.1,0.8c0.3,0.4,0.5,0.9,0.6,1.5l1,4.1h-2.6l-0.8-3.4c-0.2-0.7-0.4-1.1-0.7-1.4c-0.3-0.3-0.6-0.4-1.1-0.4h-0.7
		v5.2h-2.6v-5.2h-0.7c-0.5,0-0.8,0.1-1.1,0.4c-0.3,0.3-0.5,0.7-0.7,1.4l-0.8,3.4h-2.6l1-4.1c0.1-0.6,0.3-1.1,0.6-1.5
		C135.6,82.9,136,82.7,136.4,82.4L136.4,82.4z"/>
	<path id="XMLID_109_" class="st1" d="M156,88.9v-5.1h-2.8v5.1h-2.6V76.4h2.6v5h2.8v-5h2.6v12.5H156z"/>
	<path id="XMLID_105_" class="st1" d="M161.4,88.9V76.4h2.6v4.7h1.6c0.7,0,1.2,0.1,1.7,0.3c0.5,0.2,0.9,0.5,1.2,0.8
		c0.3,0.3,0.5,0.7,0.7,1.2c0.2,0.5,0.2,1,0.2,1.5c0,0.7-0.1,1.3-0.3,1.7s-0.4,0.9-0.8,1.2c-0.3,0.3-0.8,0.6-1.2,0.7s-1,0.3-1.6,0.3
		H161.4z M165.5,86.5c0.5,0,0.8-0.1,1.1-0.4c0.2-0.3,0.3-0.6,0.3-1.1c0-0.5-0.1-0.9-0.4-1.1c-0.3-0.2-0.6-0.3-1.1-0.3H164v3H165.5z
		 M170.5,88.9V76.4h2.6v12.5H170.5z"/>
	<path id="XMLID_102_" class="st1" d="M181.8,88.9v-6.8h0l-3.5,6.8h-2.4V76.4h2.6v7.2h0l3.6-7.2h2.3v12.5H181.8z M180.3,75.7
		c-0.5,0-1-0.1-1.4-0.3c-0.4-0.2-0.7-0.5-0.9-0.8c-0.2-0.3-0.4-0.6-0.5-1c-0.1-0.4-0.2-0.7-0.2-1h1.8c0,0.1,0,0.3,0.1,0.4
		c0.1,0.1,0.1,0.3,0.2,0.4c0.1,0.1,0.2,0.2,0.3,0.3c0.1,0.1,0.3,0.1,0.4,0.1c0.2,0,0.3,0,0.5-0.1c0.1-0.1,0.2-0.2,0.3-0.3
		c0.1-0.1,0.2-0.3,0.2-0.4c0-0.1,0.1-0.3,0.1-0.4h1.9c0,0.3-0.1,0.6-0.2,1c-0.1,0.4-0.3,0.7-0.5,1c-0.2,0.3-0.5,0.6-0.9,0.8
		C181.3,75.6,180.8,75.7,180.3,75.7z"/>
	<path id="XMLID_100_" class="st1" d="M72.7,100.5v10.1h-2.6v-10.1h-2.7v-2.4h7.9v2.4H72.7z"/>
	<path id="XMLID_98_" class="st1" d="M77.4,110.7V98.2h7.3v2.4H80v2.6h4v2.4h-4v2.7h4.7v2.5H77.4z"/>
	<path id="XMLID_95_" class="st1" d="M92.5,108.1h-3c-0.1,0.4-0.2,0.8-0.3,1.3c-0.1,0.4-0.2,0.9-0.3,1.3h-2.7l3.6-12.5h2.6l3.6,12.5
		h-2.8L92.5,108.1z M90.5,104l-0.4,1.8H92l-0.3-1.8l-0.5-2.5H91L90.5,104z"/>
	<path id="XMLID_93_" class="st1" d="M101.1,100.5v10.1h-2.6v-10.1h-2.7v-2.4h7.9v2.4H101.1z"/>
	<path id="XMLID_90_" class="st1" d="M113.7,102.1c0,0.6-0.1,1.1-0.3,1.6c-0.2,0.5-0.4,0.9-0.8,1.3c-0.3,0.3-0.7,0.6-1.2,0.8
		c-0.5,0.2-1,0.3-1.6,0.3h-1.5v4.6h-2.6V98.2h4c0.6,0,1.1,0.1,1.6,0.2c0.5,0.2,0.9,0.4,1.3,0.7c0.4,0.3,0.6,0.7,0.8,1.2
		C113.6,100.9,113.7,101.4,113.7,102.1z M111.2,102.1c0-0.5-0.1-0.9-0.4-1.2c-0.3-0.2-0.6-0.3-1.1-0.3h-1.4v3.1h1.4
		c0.4,0,0.7-0.1,1-0.4C111,103.1,111.2,102.7,111.2,102.1z"/>
	<path id="XMLID_88_" class="st1" d="M68.6,119.9v3.4c0,1,0.2,1.8,0.5,2.3s1,0.7,1.9,0.7c0.3,0,0.6-0.1,1-0.2
		c0.4-0.1,0.9-0.3,1.3-0.5v-5.7h1.2v12.5h-1.2l0-5.8c-0.4,0.2-0.8,0.4-1.3,0.5c-0.4,0.1-0.9,0.2-1.3,0.2c-0.5,0-1-0.1-1.4-0.2
		c-0.4-0.1-0.7-0.4-1-0.7c-0.3-0.3-0.5-0.7-0.6-1.2c-0.1-0.5-0.2-1.1-0.2-1.8v-3.5H68.6z"/>
	<path id="XMLID_86_" class="st1" d="M77.5,132.4v-12.5h6.5v1.1h-5.3v4.5h4.6v1h-4.6v4.7h5.3v1.1H77.5z"/>
	<path id="XMLID_84_" class="st1" d="M92.3,121h-4.1v5.6c0,1.1-0.1,1.9-0.2,2.6c-0.1,0.7-0.3,1.3-0.5,1.7c-0.2,0.5-0.5,0.8-0.9,1.1
		c-0.3,0.3-0.8,0.5-1.2,0.7c-0.1-0.1-0.1-0.3-0.2-0.4c-0.1-0.1-0.1-0.3-0.2-0.4c0.3-0.2,0.6-0.4,0.9-0.6c0.3-0.2,0.5-0.5,0.6-0.8
		c0.2-0.4,0.3-0.8,0.4-1.4c0.1-0.6,0.1-1.3,0.1-2.2v-6.9h6.3v12.5h-1.1V121z"/>
	<path id="XMLID_81_" class="st1" d="M102.2,126.7h-2c-0.2,0-0.4,0-0.7,0.1c-0.2,0.1-0.4,0.2-0.6,0.3c-0.2,0.1-0.4,0.4-0.5,0.6
		c-0.2,0.3-0.3,0.6-0.4,1l-0.9,3.7h-1.2l0.9-3.8c0.1-0.5,0.3-1,0.5-1.4c0.2-0.4,0.5-0.7,1-0.8c-0.4-0.1-0.7-0.3-0.9-0.4
		c-0.2-0.2-0.4-0.4-0.6-0.7c-0.1-0.3-0.2-0.5-0.3-0.9c-0.1-0.3-0.1-0.6-0.1-0.9c0-1.1,0.3-1.9,0.9-2.6c0.6-0.6,1.4-1,2.5-1h3.6v12.5
		h-1.1V126.7z M97.5,123.4c0,0.8,0.2,1.4,0.7,1.7c0.4,0.3,1,0.5,1.8,0.5h2.3V121h-2.3c-0.8,0-1.4,0.2-1.8,0.7
		C97.7,122.1,97.5,122.7,97.5,123.4z"/>
	<path id="XMLID_78_" class="st1" d="M106.2,132.4v-12.5h6.2v1.1h-5.1v4.3h2.4c0.6,0,1.2,0.1,1.6,0.3c0.4,0.2,0.8,0.4,1.1,0.7
		c0.3,0.3,0.5,0.7,0.6,1.1c0.1,0.4,0.2,0.9,0.2,1.4c0,1.2-0.3,2.1-0.9,2.7c-0.6,0.6-1.5,0.9-2.7,0.9H106.2z M112.1,128.8
		c0-0.3,0-0.6-0.1-0.9c-0.1-0.3-0.2-0.5-0.4-0.8s-0.4-0.4-0.8-0.5c-0.3-0.1-0.7-0.2-1.1-0.2h-2.3v4.9h2.3c0.8,0,1.5-0.2,1.8-0.7
		C111.9,130.2,112.1,129.6,112.1,128.8z"/>
	<path id="XMLID_76_" class="st1" d="M115.7,132.4v-12.5h1.1v10.3l0.1,0l5.3-10.3h1.1v12.5h-1.1v-10.3h-0.1l-5.3,10.3H115.7z"/>
	<path id="XMLID_74_" class="st1" d="M132.2,132.4v-5.8h-4.8v5.8h-1.1v-12.5h1.1v5.6h4.8v-5.6h1.2v12.5H132.2z"/>
	<path id="XMLID_72_" class="st1" d="M143.1,130.1c-0.2,0.8-0.6,1.4-1.2,1.8c-0.6,0.4-1.3,0.6-2.2,0.6c-0.5,0-1-0.1-1.5-0.3
		c-0.4-0.2-0.8-0.4-1.1-0.7c-0.3-0.3-0.5-0.7-0.7-1.1c-0.2-0.4-0.2-0.9-0.2-1.5v-5.4c0-0.5,0.1-1,0.2-1.5s0.4-0.8,0.7-1.1
		s0.7-0.6,1.1-0.8c0.4-0.2,0.9-0.3,1.5-0.3c0.8,0,1.5,0.2,2.2,0.6c0.6,0.4,1,1,1.2,1.8l-1.1,0.4c-0.1-0.5-0.4-1-0.8-1.3
		c-0.4-0.3-0.9-0.4-1.5-0.4c-0.4,0-0.7,0.1-1,0.2c-0.3,0.1-0.6,0.3-0.8,0.5c-0.2,0.2-0.4,0.5-0.5,0.8c-0.1,0.3-0.2,0.6-0.2,1v5.5
		c0,0.3,0.1,0.7,0.2,1c0.1,0.3,0.3,0.6,0.5,0.8c0.2,0.2,0.5,0.4,0.8,0.5s0.6,0.2,1,0.2c0.6,0,1.1-0.1,1.5-0.4
		c0.4-0.3,0.7-0.7,0.8-1.3L143.1,130.1z"/>
	<path id="XMLID_70_" class="st1" d="M145.4,132.4v-12.5h1.2v5.5h1.7c0.2,0,0.4,0,0.6-0.1c0.2,0,0.4-0.1,0.6-0.3
		c0.2-0.1,0.4-0.3,0.6-0.6c0.2-0.3,0.3-0.6,0.4-1l1-3.7h1.1l-1,3.6c-0.2,0.6-0.4,1.1-0.7,1.5s-0.6,0.7-1,0.8
		c0.5,0.2,0.9,0.4,1.2,0.9c0.3,0.4,0.5,1,0.6,1.6l1.1,4h-1.2l-1-3.9c-0.1-0.4-0.2-0.8-0.4-1c-0.2-0.3-0.3-0.5-0.5-0.6
		c-0.2-0.1-0.4-0.2-0.6-0.3c-0.2,0-0.5-0.1-0.7-0.1h-1.8v5.9H145.4z"/>
</g>
</svg>
